<?xml version="1.0" encoding="UTF-8" standalone="no"?>
<!DOCTYPE svg PUBLIC "-//W3C//DTD SVG 1.1//EN" "http://www.w3.org/Graphics/SVG/1.1/DTD/svg11.dtd">
<svg width="100%" height="100%" viewBox="0 0 1581 553" version="1.1" xmlns="http://www.w3.org/2000/svg" xmlns:xlink="http://www.w3.org/1999/xlink" xml:space="preserve" xmlns:serif="http://www.serif.com/" style="fill-rule:evenodd;clip-rule:evenodd;stroke-linecap:round;stroke-linejoin:round;stroke-miterlimit:1.5;">
    <g transform="matrix(1,0,0,1,-1993.24,-744.636)">
        <g id="PyEPR-Logo_dark" serif:id="PyEPR Logo_dark" transform="matrix(1,0,0,1,2083.05,1363.11)">
            <rect x="-89.808" y="-618.477" width="1580.77" height="552.655" style="fill:none;"/>
            <g transform="matrix(0.750665,0,0,0.750665,0.522635,-1361.23)">
                <g>
                    <g id="Logo">
                        <g transform="matrix(1,0,0,1,-543.307,-23.622)">
                            <g transform="matrix(1,0,0,1,-7.11662,0)">
                                <g transform="matrix(1.33215,-0,-0,1.33215,430.089,1013.08)">
                                    <path d="M394.498,53.807L444.975,90.661L395.462,128.801L394.498,53.807Z" style="fill:white;"/>
                                    <path d="M90.331,427.574L91.774,90.661C186.697,92.268 290.815,92.482 404.979,91.176" style="fill:none;stroke:white;stroke-width:16.67px;"/>
                                </g>
                            </g>
                            <g transform="matrix(-1,0,0,-1,1616.21,2752.16)">
                                <g transform="matrix(-1.33215,-0,-0,-1.33215,1193.24,1739.07)">
                                    <path d="M175.795,500.538L125.795,463.038L175.795,425.538L175.795,500.538Z" style="fill:white;"/>
                                    <path d="M480.44,126.126L480.44,463.038L165.795,463.038" style="fill:none;stroke:white;stroke-width:16.67px;"/>
                                </g>
                            </g>
                        </g>
                        <g id="BagPipe" transform="matrix(0.54657,0,0,0.54657,-131.574,989.358)">
                            <g transform="matrix(1.50439,-0.198539,0.192612,1.45949,-935.53,-131.28)">
                                <path d="M867.893,706.002C867.893,706.002 859.982,681.711 855.907,669.605C848.233,646.807 828.636,587.153 821.85,569.211C820.688,566.14 816.309,565.042 815.188,561.956C809.395,546.016 790.388,489.106 787.092,473.572C786.427,470.436 793.796,465.989 795.417,468.755C803.198,482.029 827.255,537.377 833.778,553.213C835.123,556.477 833.245,560.497 834.557,563.774C841.82,581.919 868.163,640.138 877.358,662.084C881.943,673.025 889.73,695.453 889.73,695.453C881.804,694.507 874.578,698.39 867.893,706.002Z" style="fill:white;stroke:white;stroke-width:2.08px;"/>
                            </g>
                            <g id="Chanter" transform="matrix(0.948107,0.317952,-0.317952,0.948107,34.0083,-214.828)">
                                <path d="M750.391,802.695C750.391,802.695 741.479,838.226 740.546,849.709C739.944,857.115 746.465,864.352 744.793,871.592C735.802,910.545 707.105,1045.06 696.85,1080.89C694.772,1088.16 674.906,1090.82 680.201,1092.29C685.688,1093.82 714.556,1103.35 720.472,1103.9C726.673,1104.49 712.651,1095.12 714.567,1085.43C721.696,1049.38 753.509,916.213 759.989,877.571C761.387,869.234 770.854,864.243 773.862,856.342C777.838,845.895 783.849,814.889 783.849,814.889L750.391,802.695Z" style="fill:white;stroke:white;stroke-width:12.5px;"/>
                                <g id="Holes" transform="matrix(0.975149,0.221548,-0.221548,0.975149,225.336,-140.328)">
                                    <g transform="matrix(1,0,0,1,-5.61032,-8.23163)">
                                        <circle cx="744.236" cy="910.895" r="4.423" style="fill:white;stroke:white;stroke-width:2.08px;"/>
                                    </g>
                                    <g transform="matrix(1,0,0,1,-5.61032,27.9897)">
                                        <circle cx="744.236" cy="910.895" r="4.423" style="fill:white;stroke:white;stroke-width:2.08px;"/>
                                    </g>
                                    <g transform="matrix(1,0,0,1,-5.61032,62.3268)">
                                        <circle cx="744.236" cy="910.895" r="4.423" style="fill:white;stroke:white;stroke-width:2.08px;"/>
                                    </g>
                                    <g transform="matrix(1,0,0,1,-5.61032,95.2504)">
                                        <circle cx="744.236" cy="910.895" r="4.423" style="fill:white;stroke:white;stroke-width:2.08px;"/>
                                    </g>
                                    <g transform="matrix(1,0,0,1,-5.61032,138.63)">
                                        <circle cx="744.236" cy="910.895" r="4.423" style="fill:white;stroke:white;stroke-width:2.08px;"/>
                                    </g>
                                </g>
                            </g>
                            <g id="Drone-1" serif:id="Drone 1" transform="matrix(1,0,0,1,-292.5,-6.13113)">
                                <g transform="matrix(0.632921,0.0534277,-0.0841153,0.996456,384.092,-26.3034)">
                                    <path d="M974.614,310.591L961.016,326.234L961.016,687.825L928.317,687.825L928.317,324.482L917.925,311.221L974.614,310.591Z" style="fill:white;stroke:white;stroke-width:20.31px;"/>
                                </g>
                                <g transform="matrix(1.25806,0.105642,-0.114597,1.3647,-177.386,-320.657)">
                                    <ellipse cx="937.069" cy="626.863" rx="28.472" ry="9.478" style="fill:white;stroke:white;stroke-width:2.08px;"/>
                                </g>
                                <g transform="matrix(1.25806,0.105642,-0.114597,1.3647,-164.119,-440.829)">
                                    <ellipse cx="937.069" cy="626.863" rx="28.472" ry="9.478" style="fill:white;stroke:white;stroke-width:2.08px;"/>
                                </g>
                                <g transform="matrix(1.25806,0.105642,-0.114597,1.3647,-158.39,-547.682)">
                                    <ellipse cx="937.069" cy="626.863" rx="28.472" ry="9.478" style="fill:white;stroke:white;stroke-width:2.08px;"/>
                                </g>
                            </g>
                            <g id="Drone-2" serif:id="Drone 2" transform="matrix(1,4.16334e-17,-4.16334e-17,1,-117.338,24.2543)">
                                <g transform="matrix(0.633049,0.0518869,-0.050459,0.615629,360.783,210.924)">
                                    <path d="M975.138,300.298L957.01,318.94L957.01,691.771L929.817,691.771L929.817,318.94L911.688,300.298L975.138,300.298Z" style="fill:white;stroke:white;stroke-width:20.31px;"/>
                                </g>
                                <g transform="matrix(1.25806,0.105642,-0.114597,1.3647,-177.713,-344.783)">
                                    <ellipse cx="937.069" cy="626.863" rx="28.472" ry="9.478" style="fill:white;stroke:white;stroke-width:2.08px;"/>
                                </g>
                                <g transform="matrix(1.25806,0.105642,-0.114597,1.3647,-167.674,-467.264)">
                                    <ellipse cx="937.069" cy="626.863" rx="28.472" ry="9.478" style="fill:white;stroke:white;stroke-width:2.08px;"/>
                                </g>
                            </g>
                            <g transform="matrix(1,0,0,1,95.4213,9.05744)">
                                <g id="Tussle-1" serif:id="Tussle 1" transform="matrix(0.800729,0,0,0.800729,-522.593,12.7526)">
                                    <path d="M1240.33,708.174C1240.33,708.174 1233.96,786.651 1233.81,801.136C1233.78,803.888 1239.43,795.084 1239.43,795.084C1239.43,795.084 1238.88,804.811 1239.84,804.91C1240.81,805.008 1245.2,795.677 1245.2,795.677C1245.2,795.677 1247.31,807.196 1248.51,807.045C1249.71,806.893 1252.4,794.768 1252.4,794.768C1252.4,794.768 1257.1,806.676 1258.53,806.397C1259.95,806.119 1260.96,793.097 1260.96,793.097C1260.96,793.097 1265.86,802.503 1266.96,802.326C1268.06,802.148 1267.55,792.034 1267.55,792.034C1267.55,792.034 1273.49,799.639 1273.36,797.077C1272.64,783.073 1263.26,708.007 1263.26,708.007L1240.33,708.174Z" style="fill:white;stroke:white;stroke-width:2.6px;"/>
                                    <g transform="matrix(1.05383,0,0,1.42308,-64.4755,-285.988)">
                                        <path d="M1259.9,698.492L1238.15,698.492C1236.87,696.744 1236.2,694.723 1236.2,692.661C1236.2,686.596 1241.94,681.671 1249.02,681.671C1256.11,681.671 1261.85,686.596 1261.85,692.661C1261.85,694.723 1261.18,696.744 1259.9,698.492Z" style="fill:white;stroke:white;stroke-width:2.08px;"/>
                                    </g>
                                </g>
                                <g transform="matrix(1.56639,0,0,1,-923.487,-9.29684)">
                                    <path d="M895.67,574.55C913.733,502.38 949.86,358.039 949.86,358.039C949.822,358.068 960.317,454.887 983.507,527.996C997.414,571.835 1015.88,607.149 1039.39,607.956C1110.52,610.396 1165.24,429.893 1165.24,429.893C1165.24,429.893 1174.1,559.397 1178.53,624.149" style="fill:none;stroke:white;stroke-width:12.5px;"/>
                                </g>
                                <g id="Tussle-2" serif:id="Tussle 2" transform="matrix(0.816974,0,0,0.816974,-101.593,2.01395)">
                                    <path d="M1240.33,708.174C1240.33,708.174 1233.96,786.651 1233.81,801.136C1233.78,803.888 1239.43,795.084 1239.43,795.084C1239.43,795.084 1238.88,804.811 1239.84,804.91C1240.81,805.008 1245.2,795.677 1245.2,795.677C1245.2,795.677 1247.31,807.196 1248.51,807.045C1249.71,806.893 1252.4,794.768 1252.4,794.768C1252.4,794.768 1257.1,806.676 1258.53,806.397C1259.95,806.119 1260.96,793.097 1260.96,793.097C1260.96,793.097 1265.86,802.503 1266.96,802.326C1268.06,802.148 1267.55,792.034 1267.55,792.034C1267.55,792.034 1273.49,799.639 1273.36,797.077C1272.64,783.073 1263.26,708.007 1263.26,708.007L1240.33,708.174Z" style="fill:white;stroke:white;stroke-width:2.55px;"/>
                                    <g transform="matrix(1.05383,0,0,1.42308,-64.4755,-285.988)">
                                        <path d="M1259.9,698.492L1238.15,698.492C1236.87,696.744 1236.2,694.723 1236.2,692.661C1236.2,686.596 1241.94,681.671 1249.02,681.671C1256.11,681.671 1261.85,686.596 1261.85,692.661C1261.85,694.723 1261.18,696.744 1259.9,698.492Z" style="fill:white;stroke:white;stroke-width:2.04px;"/>
                                    </g>
                                </g>
                            </g>
                            <g id="Bag" transform="matrix(2.4373,0,0,2.4373,-501.977,-2090.98)">
                                <g transform="matrix(0.622779,0,0,0.505436,-66.3533,785.188)">
                                    <path d="M746.519,800.159C741.133,794.278 749.45,784.34 752.632,777.027C756.28,768.645 762.076,758.207 768.404,749.866C775.996,739.861 784.999,723.679 798.187,716.992C812.193,709.891 834.139,708.883 852.44,707.257C874.349,705.309 906.954,703.052 929.639,705.307C949.843,707.315 968.247,720.922 988.55,720.785C1011.09,720.633 1041.82,710.81 1064.85,704.395C1092.39,696.725 1121.8,698.683 1131.83,713.459C1140.3,725.942 1150.24,739.544 1155.73,752.083C1160.76,763.598 1165.37,776.143 1164.73,788.696C1164.01,802.969 1159.55,824.479 1151.4,837.724C1143.25,850.968 1129.84,861.318 1115.82,868.162C1100.85,875.464 1079.99,878.722 1061.58,881.538C1041.4,884.626 1013.04,886.679 994.731,886.69C980.301,886.699 965.123,887.005 951.741,881.607C938.095,876.101 923.903,862.297 912.856,853.658C903.311,846.195 892.663,839.514 885.456,829.775C877.05,818.413 868.303,794.999 862.418,785.488C859.31,780.467 855.458,775.288 850.143,772.714C844.646,770.051 836.259,768.017 829.437,769.513C822.364,771.065 813.225,775.747 807.705,782.023C800.873,789.792 793.267,810.33 788.445,816.128C786.275,818.738 752.488,806.675 746.519,800.159Z" style="fill:none;stroke:white;stroke-width:27.2px;"/>
                                </g>
                                <g transform="matrix(1,0,0,1,103.937,-879.628)">
                                    <path d="M361.417,2022.05C372.104,2035.15 374.46,2049.32 368.504,2064.57" style="fill:none;stroke:white;stroke-width:4.17px;"/>
                                </g>
                                <g transform="matrix(1.45927,0,0,1.95075,-6.19758,-2797.63)">
                                    <path d="M361.417,2022.05C372.104,2035.15 374.46,2049.32 368.504,2064.57" style="fill:none;stroke:white;stroke-width:2.42px;"/>
                                </g>
                                <g transform="matrix(8.93548e-17,1.45927,-4.22222,2.58537e-16,9191.86,652.808)">
                                    <path d="M361.417,2022.05C372.104,2035.15 374.46,2049.32 368.504,2064.57" style="fill:none;stroke:white;stroke-width:1.32px;"/>
                                </g>
                                <g transform="matrix(2.06673,0,0,1.83333,-163.489,-2557.58)">
                                    <path d="M361.417,2022.05C372.104,2035.15 374.46,2049.32 368.504,2064.57" style="fill:none;stroke:white;stroke-width:2.13px;"/>
                                </g>
                            </g>
                            <g id="Drone-3" serif:id="Drone 3" transform="matrix(1,1.38778e-17,-1.38778e-17,1,44.5935,35.7767)">
                                <g transform="matrix(0.633049,0.0518869,-0.0799163,0.975023,379.552,-18.0789)">
                                    <path d="M975.138,300.298L957.01,318.94L957.01,691.771L929.817,691.771L929.817,318.94L911.688,300.298L975.138,300.298Z" style="fill:white;stroke:white;stroke-width:20.31px;"/>
                                </g>
                                <g transform="matrix(1.25806,0.105642,-0.114597,1.3647,-177.713,-344.783)">
                                    <ellipse cx="937.069" cy="626.863" rx="28.472" ry="9.478" style="fill:white;stroke:white;stroke-width:2.08px;"/>
                                </g>
                                <g transform="matrix(1.25806,0.105642,-0.114597,1.3647,-167.674,-467.264)">
                                    <ellipse cx="937.069" cy="626.863" rx="28.472" ry="9.478" style="fill:white;stroke:white;stroke-width:2.08px;"/>
                                </g>
                                <g transform="matrix(1.25806,0.105642,-0.114597,1.3647,-157.99,-574.819)">
                                    <ellipse cx="937.069" cy="626.863" rx="28.472" ry="9.478" style="fill:white;stroke:white;stroke-width:2.08px;"/>
                                </g>
                                <g transform="matrix(1.34063,0.112576,-0.182865,2.17768,-223.731,-755.365)">
                                    <ellipse cx="937.069" cy="626.863" rx="28.472" ry="9.478" style="fill:white;stroke:white;stroke-width:1.88px;"/>
                                </g>
                            </g>
                        </g>
                    </g>
                    <g transform="matrix(0.792293,0,0,0.792293,398.141,-264.362)">
                        <g transform="matrix(593.595,0,0,593.595,1822.09,2267.72)">
                        </g>
                        <text x="165.354px" y="2267.72px" style="font-family:'Futura-Medium', 'Futura', sans-serif;font-weight:500;font-size:593.595px;fill:rgb(110,151,62);">PyEPR</text>
                    </g>
                </g>
            </g>
        </g>
    </g>
</svg>
